<?xml version="1.0" encoding="utf-8"?>
<!-- Generator: Adobe Illustrator 23.0.2, SVG Export Plug-In . SVG Version: 6.00 Build 0)  -->
<svg version="1.1" xmlns="http://www.w3.org/2000/svg" xmlns:xlink="http://www.w3.org/1999/xlink" x="0px" y="0px"
	 viewBox="0 0 2000 1650" style="enable-background:new 0 0 2000 1650;" xml:space="preserve">
<style type="text/css">
	.st0{display:none;fill:#333333;}
	.st1{display:none;clip-path:url(#SVGID_2_);}
	.st2{display:inline;fill:#5BCEFA;}
	.st3{display:inline;fill:#F5A9B8;}
	.st4{display:inline;fill:#FFFFFF;}
	.st5{clip-path:url(#SVGID_2_);fill:url(#SVGID_3_);}
	.st6{fill:#FFFFFF;}
	.st7{display:none;}
	.st8{display:inline;fill:#333333;}
	.st9{display:inline;}
	.st10{display:none;clip-path:url(#SVGID_5_);}
	.st11{clip-path:url(#SVGID_5_);fill:url(#SVGID_6_);}
	.st12{fill:#333333;}
</style>
<g id="Standard_Dark">
	<rect x="-1.09" y="-0.75" class="st0" width="2003.58" height="1659.07"/>
	<g>
		<defs>
			<path id="SVGID_1_" d="M456.29,571.15c-1.39,10.44-4.05,20.79-4.58,31.25c-0.92,17.87,4.28,24.06,21.23,28.51
				c32.93,8.66,65.79,5.29,98.24-1.89c42.18-9.32,83.52-20.41,116.38-51.99c16.79-16.14,49.23-19.49,64.54-8.36
				c23.33,16.95,42.39,37.72,37.06,69.61c-5.4,32.34-27.45,52.68-54.41,68.59c-30.91,18.24-62.79,35.1-92.34,55.35
				c-73.21,50.15-106.13,117.25-88.49,208.07c7.42,38.2,7.85,78.44,6.34,117.55c-2.2,56.85-26.05,104.5-76.57,133.94
				c-70.6,41.14-148.1,61.4-228.75,71.2c-17.37,2.11-35.36,5.24-51.26,12.09c-29.4,12.67-33.1,42.36-8.71,63.48
				c9.21,7.97,20.58,14.28,31.99,18.7c37.47,14.49,76.7,19.54,116.77,20.95c86.31,3.05,155.34,43.71,214.69,103.12
				c8.27,8.27,11.39,21.7,16.9,32.75c-1.82,1.3-3.64,2.59-5.46,3.89c-4.48-3.51-9.63-6.43-13.34-10.62
				c-29.05-32.9-62.62-58.81-104.72-73.35c-55.61-19.21-112.73-30.23-171.15-35.68c-39.74-3.7-77.14-14.93-109.72-38.82
				c-30.15-22.11-40.53-50.44-29.06-86c6.09-18.88,15.96-36.89,26.31-53.96c13.05-21.54,11.52-46.13-6.81-63.84
				c-2.65-2.56-6.07-4.33-9.13-6.47c0.06-1.85,0.12-3.71,0.18-5.56c5.52-2.68,10.8-6.83,16.6-7.76c17.48-2.8,35.69-2.32,52.64-6.82
				c31.27-8.31,62.1-18.57,92.55-29.57c7.89-2.85,13.71-11.48,20.48-17.46c-0.9-1.25-1.8-2.5-2.7-3.76
				c-47.3,3.68-93.35,11.76-135.84,35.37c-8.66,4.81-19.95,7.24-29.88,6.86c-17.28-0.66-25.6-16.67-17.69-32.28
				c3.38-6.67,8.47-12.93,14.08-17.92c24.15-21.52,53.55-32.31,84.93-35.04c40.06-3.49,80.38-3.92,120.59-5.53
				c18.35-0.73,25.79-9.16,24.47-30.61c-29.08,8-44.29-14.26-61.82-30.15c-19.52-17.69-42.14-26.59-67.43-28.71
				c-19.47-1.63-39.21-1.74-58.74-0.72c-34.04,1.78-39.5-3.77-36.19-38.89c1.59-16.93,20.04-40.38,42.78-38.61
				c23.84,1.85,47.93,0.29,71.91,0.44c22.88,0.15,44.87-3.38,64.9-15.2c20.69-12.21,31.83-30.2,31.34-54.51
				c-0.91-44.4-20.84-81.17-47.73-114.62c-10.99-13.67-11.86-24.04,1.4-35.91c4.86-4.35,10.91-8,17.05-10.19
				c39.46-14.1,70.79-35.82,80.41-80.17c2.49-11.5,10.73-18.75,24.89-20.81C455.84,565.6,456.65,568.45,456.29,571.15z
				 M704.23,386.3c17.17-5.15,22.34-12.39,16.33-28.31c-5.36-14.18-13.56-27.34-21.06-40.65c-16.19-28.73-34.13-56.55-48.76-86.04
				c-17.02-34.33-31.25-70.05-46.73-105.14c-2.09-4.75-4.42-9.39-7.74-16.42c-18.15,8.24-36,15.03-52.61,24.1
				c-76.25,41.62-133.79,103.72-184.46,172.72c-22.42,30.53-42.48,62.78-64.02,93.97c-8.68,12.57-18.63,24.26-27.66,36.6
				c-3.92,5.36-7.39,11.15-10.31,17.12c-3.49,7.16-1.28,12.13,6.02,16.4c31.47,18.41,52.49,65.97,43.29,100.6
				c-2.7,10.18-9.8,19.79-16.69,28.16c-39.61,48.1-87.77,87.05-136.03,125.84c-5.98,4.81-12.07,9.48-18.24,14.06
				c-18.57,13.78-25.94,33.02-18.54,55.22c4.48,13.44,10.32,27.31,19.06,38.13c5.71,7.06,17.44,10.17,27.09,12.56
				c3.35,0.83,9.82-5.01,12.44-9.3c1.65-2.69,0.17-9.39-2.3-12.16c-8.79-9.87-10.47-24.32-2.17-29.56
				c8.92-5.62,26.02-6.32,35.39-1.33c16.13,8.59,29.27,22.99,43.21,35.45c8.81,7.87,19.13,9.77,27.45,2.85
				c12.22-10.16,24.02-21.77,32.58-34.98c3.76-5.8,1.77-18.59-2.2-25.57c-12.04-21.16-29.39-37.56-52.78-46.24
				c-12.41-4.6-5.61-11.22-1.38-16.19c19.29-22.65,38.66-45.26,58.76-67.18c27.69-30.19,55.5-60.38,66.12-101.35
				c7.2-27.78,13.98-55.92,17.61-84.33c3.8-29.69,17.7-51.14,42.19-66.63c29.07-18.39,61.83-26.38,95.29-29.33
				c33.32-2.94,67-3.6,100.44-2.58C660.37,357.62,686.12,364,704.23,386.3z M590.98,391.55c-33.3,1.93-64.25,8.56-91.85,27.31
				c-4.73,3.21-9.75,6.51-13.26,10.88c-3.02,3.76-4.09,9.1-6.02,13.74c4.62,1.71,9.12,4.01,13.89,4.95
				c4.15,0.82,9.07,1.34,12.83-0.11c30.46-11.81,58.52-4.8,87.22,7.64c12.62,5.47,28.03,6.12,42.17,6.06
				c19.11-0.08,33.6-10.1,42.33-27.48c7.52-14.97,4.61-24.7-11.49-28.61C641.85,399.86,616.29,396.22,590.98,391.55z M494.21,543.24
				c5.65-4.86,10.82-10.47,17.03-14.44c15.81-10.11,33.47-10.79,51.35-7.78c21.7,3.66,43.29,7.97,64.99,11.66
				c5.76,0.98,11.73,0.71,19.38,1.1c-1.41-4.07-1.48-6.51-2.61-7.22c-30.46-19.03-60.78-39.39-99.04-35.8
				c-21.61,2.03-38.65,13.7-50.15,32.18c-3.23,5.19-3.56,12.18-5.22,18.35C491.37,541.93,492.79,542.59,494.21,543.24z
				 M211.05,575.76c1.96,6.72,2.23,13.26,5.57,17.19c2.31,2.72,10.81,4.16,13.17,2.16c12.02-10.17,22.25-22.67,40.31-21.92
				c1.63,0.07,4.79-4.63,4.93-7.23c0.3-5.63-0.33-11.47-1.59-16.99c-3.58-15.64-16.56-30.2-27.49-29.74
				c-14.96,0.62-20.49,12.91-25.2,24.33C216.44,554.04,214.11,565.33,211.05,575.76z M534.24,612.99
				c-1.11-20.78-19.55-19.82-29-28.94C491.66,601.2,502.68,610.5,534.24,612.99z M534.94,579.45c6.63-7.49,13.79-12.04,14.04-16.95
				c0.22-4.33-7.26-9.06-11.34-13.61c-4.84,5.34-10.58,10.18-13.91,16.34C522.84,566.88,529.32,572.53,534.94,579.45z"/>
		</defs>
		<clipPath id="SVGID_2_">
			<use xlink:href="#SVGID_1_"  style="overflow:visible;"/>
		</clipPath>
		<g class="st1">
			<path class="st2" d="M-1636.99,106.77H775.72v1444.53h-2412.71V106.77z"/>
			<path class="st3" d="M-1636.99,395.68H775.72v866.72h-2412.71V395.68z"/>
			<path class="st4" d="M-1636.99,684.59H775.72v288.91h-2412.71V684.59z"/>
		</g>
		<linearGradient id="SVGID_3_" gradientUnits="userSpaceOnUse" x1="-417.4417" y1="1555.39" x2="-417.4417" y2="176.592">
			<stop  offset="0.0174" style="stop-color:#55CDFC"/>
			<stop  offset="0.1692" style="stop-color:#DCAEC3"/>
			<stop  offset="0.1992" style="stop-color:#F7A8B8"/>
			<stop  offset="0.49" style="stop-color:#FEF4F6"/>
			<stop  offset="0.532" style="stop-color:#FFFFFF"/>
			<stop  offset="0.6221" style="stop-color:#FDE7EB"/>
			<stop  offset="0.8122" style="stop-color:#F7A8B8"/>
			<stop  offset="0.8131" style="stop-color:#F7A8B8"/>
			<stop  offset="1" style="stop-color:#55CDFC"/>
		</linearGradient>
		<rect x="-1633.96" y="101.68" class="st5" width="2433.03" height="1449.62"/>
	</g>
	<g>
		<path class="st6" d="M856.5,111.75h189.24v65.03H928.03v126.81h92.34v65.03h-92.34v198.35H856.5V111.75z"/>
		<path class="st6" d="M1072.34,111.75h71.53v455.22h-71.53V111.75z"/>
		<path class="st6" d="M1174.72,459.02V219.7c0-72.84,36.42-114.46,106.65-114.46c70.23,0,106.65,41.62,106.65,114.46v39.02h-67.63
			v-43.57c0-32.52-14.31-44.87-37.07-44.87c-22.76,0-37.07,12.36-37.07,44.87v249.07c0,32.52,14.31,44.22,37.07,44.22
			c22.76,0,37.07-11.7,37.07-44.22v-89.09h-35.77V310.1h103.4v148.92c0,72.84-36.42,114.46-106.65,114.46
			C1211.13,573.47,1174.72,531.85,1174.72,459.02z"/>
		<path class="st6" d="M1419.99,111.75h71.53v185.34h76.74V111.75h71.53v455.22h-71.53V362.12h-76.74v204.85h-71.53V111.75z"/>
		<path class="st6" d="M1741.19,176.78h-74.78v-65.03h221.11v65.03h-74.79v390.19h-71.54V176.78z"/>
		<path class="st6" d="M929.71,666.64h-74.78v-65.03h221.1v65.03h-74.78v390.19h-71.54V666.64z"/>
		<path class="st6" d="M1103.99,601.61h71.53v185.34h76.74V601.61h71.54v455.22h-71.54V851.98h-76.74v204.85h-71.53V601.61z"/>
		<path class="st6" d="M1355.59,601.61h195.09v65.03h-123.56v120.31h98.2v65.03h-98.2v139.82h123.56v65.03h-195.09V601.61z"/>
		<path class="st6" d="M857.66,1088.25h107.95c74.14,0,106,34.47,106,104.7v18.21c0,46.82-14.31,76.09-46.17,89.09v1.3
			c38.37,13.01,53.32,46.82,53.32,94.95v39.02c0,70.23-37.07,107.95-108.6,107.95h-112.5V1088.25z M957.16,1273.59
			c26.66,0,42.92-11.71,42.92-48.12v-25.36c0-32.52-11.06-46.82-36.42-46.82h-34.47v120.31H957.16z M970.16,1478.44
			c24.06,0,37.07-11.06,37.07-44.87v-39.67c0-42.27-13.66-55.28-46.17-55.28h-31.86v139.82H970.16z"/>
		<path class="st6" d="M1159.56,1088.25h96.9l74.14,455.22h-71.53l-13.01-90.39v1.3h-81.29l-13.01,89.09h-66.33L1159.56,1088.25z
			 M1237.6,1392.59l-31.87-225.01h-1.3l-31.22,225.01H1237.6z"/>
		<path class="st6" d="M1351.4,1088.25h89.74l69.58,272.48h1.3v-272.48h63.73v455.22h-73.48l-85.84-332.31h-1.3v332.31h-63.73
			V1088.25z"/>
	</g>
</g>
<g id="Reverse_White" class="st7">
	<rect x="102.95" y="105.39" class="st8" width="715.27" height="1435.53"/>
	<g class="st9">
		<defs>
			<path id="SVGID_4_" d="M463.29,566.15c-1.39,10.44-4.05,20.79-4.58,31.25c-0.92,17.87,4.28,24.06,21.23,28.51
				c32.93,8.66,65.79,5.29,98.24-1.89c42.18-9.32,83.52-20.41,116.38-51.99c16.79-16.14,49.23-19.49,64.54-8.36
				c23.33,16.95,42.39,37.72,37.06,69.61c-5.4,32.34-27.45,52.68-54.41,68.59c-30.91,18.24-62.79,35.1-92.34,55.35
				c-73.21,50.15-106.13,117.25-88.49,208.07c7.42,38.2,7.85,78.44,6.34,117.55c-2.2,56.85-26.05,104.5-76.57,133.94
				c-70.6,41.14-148.1,61.4-228.75,71.2c-17.37,2.11-35.36,5.24-51.26,12.09c-29.4,12.67-33.1,42.36-8.71,63.48
				c9.21,7.97,20.58,14.28,31.99,18.7c37.47,14.49,76.7,19.54,116.77,20.95c86.31,3.05,155.34,43.71,214.69,103.12
				c8.27,8.27,11.39,21.7,16.9,32.75c-1.82,1.3-3.64,2.59-5.46,3.89c-4.48-3.51-9.63-6.43-13.34-10.62
				c-29.05-32.9-62.62-58.81-104.72-73.35c-55.61-19.21-112.73-30.23-171.15-35.68c-39.74-3.7-77.14-14.93-109.72-38.82
				c-30.15-22.11-40.53-50.44-29.06-86c6.09-18.88,15.96-36.89,26.31-53.96c13.05-21.54,11.52-46.13-6.81-63.84
				c-2.65-2.56-6.07-4.33-9.13-6.47c0.06-1.85,0.12-3.71,0.18-5.56c5.52-2.68,10.8-6.83,16.6-7.76c17.48-2.8,35.69-2.32,52.64-6.82
				c31.27-8.31,62.1-18.57,92.55-29.57c7.89-2.85,13.71-11.48,20.48-17.46c-0.9-1.25-1.8-2.5-2.7-3.76
				c-47.3,3.68-93.35,11.76-135.84,35.37c-8.66,4.81-19.95,7.24-29.88,6.86c-17.28-0.66-25.6-16.67-17.69-32.28
				c3.38-6.67,8.47-12.93,14.08-17.92c24.15-21.52,53.55-32.31,84.93-35.04c40.06-3.49,80.38-3.92,120.59-5.53
				c18.35-0.73,25.79-9.16,24.47-30.61c-29.08,8-44.29-14.26-61.82-30.15c-19.52-17.69-42.14-26.59-67.43-28.71
				c-19.47-1.63-39.21-1.74-58.74-0.72c-34.04,1.78-39.5-3.77-36.19-38.89c1.59-16.93,20.04-40.38,42.78-38.61
				c23.84,1.85,47.93,0.29,71.91,0.44c22.88,0.15,44.87-3.38,64.9-15.2c20.69-12.21,31.83-30.2,31.34-54.51
				c-0.91-44.4-20.84-81.17-47.73-114.62c-10.99-13.67-11.86-24.04,1.4-35.91c4.86-4.35,10.91-8,17.05-10.19
				c39.46-14.1,70.79-35.82,80.41-80.17c2.49-11.5,10.73-18.75,24.89-20.81C462.84,560.6,463.65,563.45,463.29,566.15z
				 M711.23,381.3c17.17-5.15,22.34-12.39,16.33-28.31c-5.36-14.18-13.56-27.34-21.06-40.65c-16.19-28.73-34.13-56.55-48.76-86.04
				c-17.02-34.33-31.25-70.05-46.73-105.14c-2.09-4.75-4.42-9.39-7.74-16.42c-18.15,8.24-36,15.03-52.61,24.1
				c-76.25,41.62-133.79,103.72-184.46,172.72c-22.42,30.53-42.48,62.78-64.02,93.97c-8.68,12.57-18.63,24.26-27.66,36.6
				c-3.92,5.36-7.39,11.15-10.31,17.12c-3.49,7.16-1.28,12.13,6.02,16.4c31.47,18.41,52.49,65.97,43.29,100.6
				c-2.7,10.18-9.8,19.79-16.69,28.16c-39.61,48.1-87.77,87.05-136.03,125.84c-5.98,4.81-12.07,9.48-18.24,14.06
				c-18.57,13.78-25.94,33.02-18.54,55.22c4.48,13.44,10.32,27.31,19.06,38.13c5.71,7.06,17.44,10.17,27.09,12.56
				c3.35,0.83,9.82-5.01,12.44-9.3c1.65-2.69,0.17-9.39-2.3-12.16c-8.79-9.87-10.47-24.32-2.17-29.56
				c8.92-5.62,26.02-6.32,35.39-1.33c16.13,8.59,29.27,22.99,43.21,35.45c8.81,7.87,19.13,9.77,27.45,2.85
				c12.22-10.16,24.02-21.77,32.58-34.98c3.76-5.8,1.77-18.59-2.2-25.57c-12.04-21.16-29.39-37.56-52.78-46.24
				c-12.41-4.6-5.61-11.22-1.38-16.19c19.29-22.65,38.66-45.26,58.76-67.18c27.69-30.19,55.5-60.38,66.12-101.35
				c7.2-27.78,13.98-55.92,17.61-84.33c3.8-29.69,17.7-51.14,42.19-66.63c29.07-18.39,61.83-26.38,95.29-29.33
				c33.32-2.94,67-3.6,100.44-2.58C667.37,352.62,693.12,359,711.23,381.3z M597.98,386.55c-33.3,1.93-64.25,8.56-91.85,27.31
				c-4.73,3.21-9.75,6.51-13.26,10.88c-3.02,3.76-4.09,9.1-6.02,13.74c4.62,1.71,9.12,4.01,13.89,4.95
				c4.15,0.82,9.07,1.34,12.83-0.11c30.46-11.81,58.52-4.8,87.22,7.64c12.62,5.47,28.03,6.12,42.17,6.06
				c19.11-0.08,33.6-10.1,42.33-27.48c7.52-14.97,4.61-24.7-11.49-28.61C648.85,394.86,623.29,391.22,597.98,386.55z M501.21,538.24
				c5.65-4.86,10.82-10.47,17.03-14.44c15.81-10.11,33.47-10.79,51.35-7.78c21.7,3.66,43.29,7.97,64.99,11.66
				c5.76,0.98,11.73,0.71,19.38,1.1c-1.41-4.07-1.48-6.51-2.61-7.22c-30.46-19.03-60.78-39.39-99.04-35.8
				c-21.61,2.03-38.65,13.7-50.15,32.18c-3.23,5.19-3.56,12.18-5.22,18.35C498.37,536.93,499.79,537.59,501.21,538.24z
				 M218.05,570.76c1.96,6.72,2.23,13.26,5.57,17.19c2.31,2.72,10.81,4.16,13.17,2.16c12.02-10.17,22.25-22.67,40.31-21.92
				c1.63,0.07,4.79-4.63,4.93-7.23c0.3-5.63-0.33-11.47-1.59-16.99c-3.58-15.64-16.56-30.2-27.49-29.74
				c-14.96,0.62-20.49,12.91-25.2,24.33C223.44,549.04,221.11,560.33,218.05,570.76z M541.24,607.99
				c-1.11-20.78-19.55-19.82-29-28.94C498.66,596.2,509.68,605.5,541.24,607.99z M541.94,574.45c6.63-7.49,13.79-12.04,14.04-16.95
				c0.22-4.33-7.26-9.06-11.34-13.61c-4.84,5.34-10.58,10.18-13.91,16.34C529.84,561.88,536.32,567.53,541.94,574.45z"/>
		</defs>
		<clipPath id="SVGID_5_">
			<use xlink:href="#SVGID_4_"  style="overflow:visible;"/>
		</clipPath>
		<g class="st10">
			<path class="st2" d="M-1629.99,101.77H782.72v1444.53h-2412.71V101.77z"/>
			<path class="st3" d="M-1629.99,390.68H782.72v866.72h-2412.71V390.68z"/>
			<path class="st4" d="M-1629.99,679.59H782.72v288.91h-2412.71V679.59z"/>
		</g>
		<linearGradient id="SVGID_6_" gradientUnits="userSpaceOnUse" x1="-410.4417" y1="1550.39" x2="-410.4417" y2="171.592">
			<stop  offset="0.0174" style="stop-color:#55CDFC"/>
			<stop  offset="0.1692" style="stop-color:#DCAEC3"/>
			<stop  offset="0.1992" style="stop-color:#F7A8B8"/>
			<stop  offset="0.49" style="stop-color:#FEF4F6"/>
			<stop  offset="0.532" style="stop-color:#FFFFFF"/>
			<stop  offset="0.6221" style="stop-color:#FDE7EB"/>
			<stop  offset="0.8122" style="stop-color:#F7A8B8"/>
			<stop  offset="0.8131" style="stop-color:#F7A8B8"/>
			<stop  offset="1" style="stop-color:#55CDFC"/>
		</linearGradient>
		<rect x="-1626.96" y="96.68" class="st11" width="2433.03" height="1449.62"/>
	</g>
	<g class="st9">
		<path class="st12" d="M863.5,106.75h189.24v65.03H935.03v126.81h92.34v65.03h-92.34v198.35H863.5V106.75z"/>
		<path class="st12" d="M1079.34,106.75h71.53v455.22h-71.53V106.75z"/>
		<path class="st12" d="M1181.72,454.02V214.7c0-72.84,36.42-114.46,106.65-114.46c70.23,0,106.65,41.62,106.65,114.46v39.02h-67.63
			v-43.57c0-32.52-14.31-44.87-37.07-44.87c-22.76,0-37.07,12.36-37.07,44.87v249.07c0,32.52,14.31,44.22,37.07,44.22
			c22.76,0,37.07-11.7,37.07-44.22v-89.09h-35.77V305.1h103.4v148.92c0,72.84-36.42,114.46-106.65,114.46
			C1218.13,568.47,1181.72,526.85,1181.72,454.02z"/>
		<path class="st12" d="M1426.99,106.75h71.53v185.34h76.74V106.75h71.53v455.22h-71.53V357.12h-76.74v204.85h-71.53V106.75z"/>
		<path class="st12" d="M1748.19,171.78h-74.78v-65.03h221.11v65.03h-74.79v390.19h-71.54V171.78z"/>
		<path class="st12" d="M936.71,661.64h-74.78v-65.03h221.1v65.03h-74.78v390.19h-71.54V661.64z"/>
		<path class="st12" d="M1110.99,596.61h71.53v185.34h76.74V596.61h71.54v455.22h-71.54V846.98h-76.74v204.85h-71.53V596.61z"/>
		<path class="st12" d="M1362.59,596.61h195.09v65.03h-123.56v120.31h98.2v65.03h-98.2v139.82h123.56v65.03h-195.09V596.61z"/>
		<path class="st12" d="M864.66,1083.25h107.95c74.14,0,106,34.47,106,104.7v18.21c0,46.82-14.31,76.09-46.17,89.09v1.3
			c38.37,13.01,53.32,46.82,53.32,94.95v39.02c0,70.23-37.07,107.95-108.6,107.95h-112.5V1083.25z M964.16,1268.59
			c26.66,0,42.92-11.71,42.92-48.12v-25.36c0-32.52-11.06-46.82-36.42-46.82h-34.47v120.31H964.16z M977.16,1473.44
			c24.06,0,37.07-11.06,37.07-44.87v-39.67c0-42.27-13.66-55.28-46.17-55.28h-31.86v139.82H977.16z"/>
		<path class="st12" d="M1166.56,1083.25h96.9l74.14,455.22h-71.53l-13.01-90.39v1.3h-81.29l-13.01,89.09h-66.33L1166.56,1083.25z
			 M1244.6,1387.59l-31.87-225.01h-1.3l-31.22,225.01H1244.6z"/>
		<path class="st12" d="M1358.4,1083.25h89.74l69.58,272.48h1.3v-272.48h63.73v455.22h-73.48l-85.84-332.31h-1.3v332.31h-63.73
			V1083.25z"/>
	</g>
</g>
</svg>
